<?xml version="1.0" encoding="UTF-8" standalone="no"?>
<!-- Created with Inkscape (http://www.inkscape.org/) -->

<svg
   width="210mm"
   height="297mm"
   viewBox="0 0 210 297"
   version="1.1"
   id="svg3520"
   inkscape:version="1.1.2 (0a00cf5339, 2022-02-04)"
   sodipodi:docname="tape-four-cells-with-fill.svg"
   xmlns:inkscape="http://www.inkscape.org/namespaces/inkscape"
   xmlns:sodipodi="http://sodipodi.sourceforge.net/DTD/sodipodi-0.dtd"
   xmlns="http://www.w3.org/2000/svg"
   xmlns:svg="http://www.w3.org/2000/svg">
  <sodipodi:namedview
     id="namedview3522"
     pagecolor="#ffffff"
     bordercolor="#666666"
     borderopacity="1.0"
     inkscape:pageshadow="2"
     inkscape:pageopacity="0.0"
     inkscape:pagecheckerboard="0"
     inkscape:document-units="mm"
     showgrid="false"
     inkscape:zoom="8"
     inkscape:cx="59.5"
     inkscape:cy="-3.0625"
     inkscape:window-width="1603"
     inkscape:window-height="1134"
     inkscape:window-x="26"
     inkscape:window-y="23"
     inkscape:window-maximized="0"
     inkscape:current-layer="mainLayer" />
  <defs
     id="defs3517" />
  <g
     inkscape:label="Main Layer"
     inkscape:groupmode="layer"
     id="mainLayer">
    <path
       d="m 1.330369,15.078956 v 0 c 3.951555,-0.2413 7.901255,-0.50906 11.854394,-0.72416 0.266171,-0.0145 0.537104,-0.0148 0.798777,0.0355 0.184944,0.0354 0.334169,0.23812 0.521494,0.21749 0.630767,-0.0693 1.211792,-0.40852 1.842558,-0.47758 0.192882,-0.0212 0.346605,0.20929 0.54028,0.21696 1.674283,0.0664 3.350948,0.0143 5.026285,0.004 0.17913,-10e-4 0.36381,0.0103 0.53605,-0.0389 0.10001,-0.0286 0.14896,-0.16483 0.25082,-0.18626 0.26115,-0.055 0.53526,-0.0712 0.79958,-0.0352 0.27516,0.0376 0.51726,0.27622 0.79401,0.25267 0.63209,-0.054 1.21444,-0.38893 1.84256,-0.47757 0.10636,-0.0151 0.16034,0.17965 0.26776,0.17939 0.19208,-5.3e-4 0.35559,-0.19156 0.54768,-0.18124 1.50019,0.0802 2.98212,0.45164 4.48469,0.45005 0.5461,-7.9e-4 1.03478,-0.36539 1.57321,-0.4572 0.35534,-0.0606 0.72416,-0.045 1.08135,0.004 0.18653,0.0257 0.33417,0.23813 0.5215,0.21749 0.63076,-0.0693 1.21179,-0.40852 1.84255,-0.47757 0.19289,-0.0212 0.34661,0.20611 0.54028,0.21696 1.28165,0.0706 2.91411,-0.2076 4.17776,0.0162 0.7513,-1.96921 -0.0935,-9.8597502 -0.10876,-12.1762502 -0.0156,-2.36973001 -0.35041,-1.49478001 -0.71903,-1.52116001 -0.38826,-0.0278 -0.74518,0.51151 -0.85362,0.356 -0.37993,-0.24722 -0.5586,-0.0575 -0.67422,-0.13189 -0.66622,0.0599 -1.33139,-0.1072 -1.33139,-0.1072 -0.63182,0.11351 -0.91354,0.001 -1.55145,0.0708 -0.96361,0.10451 -1.94072,0.0622 -2.90804,-2.6e-4 -0.18891,-0.0122 -0.33734,-0.18495 -0.52308,-0.22146 -0.2622,-0.0516 -0.5334,-0.0392 -0.80063,-0.0392 -0.26723,0 -0.53842,-0.0124 -0.80063,0.0392 -0.18573,0.0365 -0.33655,0.18997 -0.52334,0.22146 -0.26009,0.0439 -0.53129,0.0421 -0.7919,0 -0.2749,-0.0445 -0.51885,-0.22305 -0.7956,-0.25665 -0.43683,-0.0529 -0.88583,-0.0714 -1.32027,-2.6e-4 -0.63394,0.10398 -1.21682,0.4519 -1.85526,0.52175 -0.96361,0.10557 -1.94072,0.0622 -2.90803,-2.6e-4 -0.18892,-0.0122 -0.3392,-0.17621 -0.52308,-0.22146 -0.17384,-0.0429 -0.35693,-0.0389 -0.53605,-0.0389 -0.26723,0 -0.53843,-0.0127 -0.80063,0.0389 -0.18574,0.0365 -0.33443,0.20691 -0.523344,0.22146 -0.790575,0.0603 -1.588294,0.0585 -2.379398,0 -0.193146,-0.0143 -0.347398,-0.24051 -0.53975,-0.21643 -0.5461,0.0683 -1.03214,0.42254 -1.579298,0.48128 -0.963877,0.10319 -1.940983,0.0667 -2.908035,-2.7e-4 -0.277813,-0.0193 -0.517525,-0.23548 -0.795602,-0.25664 -0.878946,-0.0664 -1.763184,-0.013 -2.644776,-0.004 -0.267229,0.003 -0.538427,-0.0124 -0.800629,0.0392 -0.185737,0.0365 -0.336814,0.18838 -0.523346,0.22119 -0.175948,0.031 -0.362479,0.0116 -0.534987,-0.0349 -0.103717,-0.0278 -0.161396,-0.20029 -0.2667,-0.18018 -0.458788,0.0868 -0.851165,0.43339001 -1.315508,0.48022001 -1.139825,0.11509 -2.293409,0.068 -3.436941,-2.6e-4 -0.277548,-0.0167 -0.518583,-0.22252001 -0.794808,-0.25242001 -0.135996,-0.0148 -0.274902,0.0519 -0.391848,0.1233 -0.09816,0.0603 -0.184944,0.15187001 -0.230188,0.25770001 -0.05794,0.13653 0.02117,0.32015 -0.06614,0.44001 -0.14155196,0.19473 -0.46116896,0.22595 -0.57335196,0.43894 -0.245269,0.4654 -0.429684,0.9861 -0.454555,1.51156 -0.11721,2.47174 -0.132027,4.95433 0.03043,7.4234202 0.0807,1.22502 0.342371,2.44131 0.696384,3.61712 M 1.681743,13.693456 v 0 c -0.1778,-0.97208 -0.478366,-1.9296 -0.533664,-2.91624 -0.123296,-2.2005302 -0.06826,-4.4090102 2.64e-4,-6.6119302 0.0058,-0.18918 0.176213,-0.3392 0.221457,-0.52308 0.04286,-0.17384 0.03889,-0.35693 0.03889,-0.53605 0,-0.26723 0.01349,-0.53869 -0.03863,-0.80063 -0.02037,-0.10186 -0.250561,-0.19023 -0.172774,-0.25929 0.154781,-0.13705 0.401638,-0.14552 0.607484,-0.12647 0.277547,0.0257 0.517525,0.23945 0.795866,0.25638 1.143532,0.0693 2.295263,0.0982 3.436676,2.6e-4 0.895615,-0.0767 1.747044,-0.50614 2.645833,-0.52149 0.573882,-0.01 1.498071,-0.10213 1.662907,0.44768 0.351896,1.17342 -0.436298,2.42464 -0.434182,3.64966 0.0037,1.9423 0.365125,3.869 0.45138,5.8091902 0.0048,0.10795 -0.147638,0.16616 -0.181505,0.26855 -0.02937,0.0884 -0.03043,0.1913 0,0.27914 0.03413,0.0979 0.164571,0.14869 0.183886,0.25056 0.05636,0.29686 0.325967,0.82259 0.03545,0.9054 -1.662906,0.47361 -3.432175,0.43868 -5.157523,0.55298 -1.054894,0.0701 -2.115344,0.0368 -3.171828,-2.6e-4 m 18.266311,-0.57203 v 0 c -1.67931,0.0169 -3.360737,-0.0376 -5.037666,0.0508 -0.278077,0.0148 -0.51779,0.23415 -0.795602,0.25664 -0.790575,0.0638 -1.587765,0.0508 -2.379398,0 -0.161132,-0.0103 -0.417248,-0.0238 -0.448734,-0.18203 -0.291571,-1.46156 -0.399785,-2.95751 -0.474398,-4.4460602 -0.08387,-1.67243 -0.11086,-3.35253 0,-5.02338 0.04657,-0.70194 0.270405,-1.38271 0.469371,-2.0574 0.02249,-0.0757 0.103452,-0.15663 0.182034,-0.15134 0.276225,0.0188 0.524668,0.2032 0.800893,0.21855 1.055952,0.0582 2.120107,0.10398 3.172354,2.6e-4 0.72443,-0.0714 1.397794,-0.43286 2.120107,-0.52176 0.699558,-0.086 1.410493,-0.0386 2.114021,5.3e-4 0.12647,0.007 0.36142,0.0103 0.354277,0.13653 -0.03069,0.54133 -0.329142,1.03452 -0.45085,1.56263 -0.04075,0.17753 -0.0336,0.36327 -0.0344,0.54557 -0.0095,2.11587 -0.104775,4.23492 0.0034,6.34814 0.0545,1.0670702 0.352161,2.1082002 0.483659,3.1683902 m 9.712321,-0.1688 v 0 c -1.59173,0.0161 -3.18558,-0.0381 -4.77493,0.049 -0.27808,0.0153 -0.51753,0.23759 -0.7956,0.25664 -0.92393,0.0627 -2.3839,0.82444 -2.77813,-0.0135 -1.06997,-2.27568 -0.69215,-4.9921602 -0.75777,-7.5062302 -0.0299,-1.1385 0.27755,-2.26166 0.47334,-3.38349 0.0587,-0.33655 0.0897,-0.70591 0.28919,-0.98319 0.0783,-0.10875 0.27147,-0.0103 0.40085,0.0241 0.18282,0.0484 0.33364,0.20928 0.52228,0.22066 1.05569,0.0632 2.12461,0.14287 3.17262,2.6e-4 0.82047,-0.11165 1.56792,-0.5379 2.36723,-0.75459001 0.17568,-0.0476 0.36274,-0.0349 0.54477,-0.0349 0.18204,0 0.37333,-0.0265 0.54452,0.0352 0.3175,0.11403001 0.70829,0.19711001 0.89005,0.48127001 0.16801,0.26326 0.0601,0.62786 0.0167,0.93716 -0.0265,0.18759 -0.17621,0.33946 -0.22145,0.52334 -0.0429,0.17383 -0.0378,0.35693 -0.0389,0.53605 -0.0106,1.85182 -0.072,3.70496 0.004,5.55519 0.0114,0.27861 0.23733,0.51779 0.25664,0.7956 0.0669,0.9673202 0.0341,1.9396602 -2.6e-4,2.9085702 m 10.20384,0.0884 v 0 c -1.67984,0.0161 -3.36153,-0.0325 -5.03952,0.049 -0.18891,0.009 -0.33919,0.17621 -0.52308,0.22145 -0.17383,0.0429 -0.35692,0.0365 -0.53605,0.0389 -0.70511,0.009 -1.41234,0.0481 -2.11587,-0.004 -0.16192,-0.0119 -0.40375,-0.0299 -0.45085,-0.18547 -0.28019,-0.92287 -0.42518,-1.89151 -0.47228,-2.8551202 -0.11192,-2.2897 -0.013,-4.58496 -0.003,-6.87731 7.9e-4,-0.1823 -0.0132,-0.36963 0.0344,-0.54531 0.13229,-0.48604 0.0886,-1.13718 0.50191,-1.42505 0.33073,-0.23071001 0.78079,0.22755 1.18322,0.2503 1.05622,0.0598 2.11826,0.0653 3.17394,-0.004 0.27808,-0.0183 0.51859,-0.22675 0.79561,-0.25665 0.52572,-0.0566 1.06018,-0.0566 1.58564,0 0.27729,0.0299 0.51964,0.21829 0.79561,0.25665 0.26431,0.0365 0.53789,0.0164 0.79983,-0.0349 0.10187,-0.0201 0.15928,-0.14419 0.25929,-0.17277 0.0365,-0.0106 0.0818,0.0355 0.0876,0.073 0.0283,0.18203 0.0328,0.36962 0.009,0.55218 M 9.755219,1.3375258 v 0 c -0.118798,-0.0278 -0.352955,0.0389 -0.35613,-0.0831 -0.0029,-0.12065 0.234157,-0.11536 0.351632,-0.0878"
       style="fill:#000000;stroke-width:0.264583"
       id="tapeFourCells" />
    <path
       style="fill:#a0a0a0;stroke:none;stroke-width:0.0634384"
       d="M 34.467867,6.2588424 C 32.658533,6.2569062 30.837482,6.3709206 29.088429,6.8670965 26.505157,7.525553 23.921437,8.3222725 21.232907,8.3723819 17.40137,8.4949226 13.557678,8.5280861 9.7333339,8.2305129 8.7688431,8.1102029 7.9293005,7.5275368 7.0099432,7.2959988 6.2236473,7.318255 5.3540941,7.1576423 4.6800689,7.6728249 4.3153891,7.8256046 4.7349527,8.1394796 4.8843537,8.2809493 5.4623393,8.7280095 5.2124535,9.536175 5.2887322,10.160795 c -0.019999,1.21587 0.090694,2.446457 -0.095581,3.652173 -0.1991307,0.724838 -0.8245105,1.295965 -0.7990513,2.08975 -0.2291475,5.367798 -0.2927972,10.742987 -0.2695928,16.115582 0.049422,3.463873 0.053662,6.937682 0.4051428,10.387173 0.4098754,3.136813 1.2602006,6.192799 1.8496259,9.296823 0.7069021,0.22689 1.3897961,0.582576 2.1527204,0.508924 4.4175928,0.205625 8.8450608,0.155341 13.2582128,-0.124791 5.823317,-0.326726 11.74179,-0.372457 17.398614,-1.959561 0.580188,-0.08082 0.643076,-0.74489 0.53204,-1.208304 -0.161955,-0.786208 -0.392871,-1.566214 -0.643676,-2.324422 -0.285312,-0.421461 -0.777675,-0.788351 -0.696956,-1.362563 -0.0985,-0.639336 0.532449,-0.986382 0.759651,-1.497865 -0.24706,-5.040449 -0.931259,-10.047407 -1.361906,-15.073713 -0.198087,-2.583346 -0.425054,-5.178284 -0.29941,-7.770504 0.225674,-3.088523 1.453752,-5.992801 1.834903,-9.054394 C 39.362789,10.448664 39.511386,8.9857943 38.94399,7.6782766 38.384038,6.603054 37.054285,6.3775758 35.95743,6.2884553 35.461667,6.2557403 34.964483,6.2546516 34.467867,6.2588424 Z"
       id="path1033"
       transform="scale(0.26458333)" />
    <path
       style="fill:#a0a0a0;stroke:none;stroke-width:0.0634384"
       d="m 36.240053,4.4102078 c -0.251245,-0.021445 -0.794104,0.087547 -0.610842,0.4460513 0.336116,0.1917768 0.79005,0.1566991 1.164318,0.1097781 0.15713,-0.1373064 -0.009,-0.3845622 -0.005,-0.5570684 -0.182835,7.144e-4 -0.365699,-0.00151 -0.548519,0.00124 z"
       id="path1072"
       transform="scale(0.26458333)" />
    <path
       style="fill:#a0a0a0;stroke:none;stroke-width:0.0634384"
       d="M 70.612391,5.1209161 C 68.647789,5.099834 66.684779,5.3832361 64.817937,6.001 c -2.014378,0.6246286 -4.049715,1.2780632 -6.1758,1.3530401 -2.75561,0.1555967 -5.520466,0.1099134 -8.278112,0.028291 -1.37108,-0.1016245 -2.80591,0.015725 -4.095306,-0.550034 -0.538715,-0.1299238 -1.0937,-0.4767928 -1.657523,-0.3504285 -0.568431,0.2678 -0.552909,1.0156069 -0.771173,1.5256191 -0.76523,2.4811483 -1.411987,5.0199733 -1.527182,7.6256723 -0.216855,4.172643 -0.198485,8.354749 -0.133443,12.531408 0.156778,6.579107 0.499558,13.172444 1.50513,19.682704 0.187727,0.964122 0.268582,1.968153 0.598325,2.894156 0.523865,0.478087 1.31671,0.385185 1.976667,0.480247 2.658949,0.165532 5.327969,0.109785 7.988737,0.01871 1.232129,0.03438 2.241767,-0.796939 3.419543,-0.993655 3.06287,-0.207949 6.137233,-0.154039 9.205557,-0.196814 3.338641,-0.01756 6.677312,-0.02882 10.015966,-0.04361 0.420911,-0.414634 0.08079,-1.024813 0.06951,-1.524876 -0.631784,-3.972235 -1.610408,-7.908379 -1.709094,-11.947706 -0.207932,-5.736396 -0.09577,-11.478659 -0.02332,-17.216735 0.05127,-2.483206 0.0611,-4.972258 0.138218,-7.451817 C 75.849129,9.8503361 76.880644,7.9793606 77.117305,5.905223 77.170732,5.3534624 76.460906,5.3602335 76.085935,5.3099923 74.265958,5.1644585 72.437774,5.1180454 70.612391,5.1209161 Z"
       id="path1111"
       transform="scale(0.26458333)" />
    <path
       style="fill:#a0a0a0;stroke:none;stroke-width:0.126877"
       d="m 109.42058,3.3267989 c -1.54524,-0.036405 -3.10244,0.091521 -4.52271,0.7501095 -3.16764,1.1645771 -6.384545,2.4919262 -9.824773,2.4188369 -3.222709,0.037206 -6.475313,0.1106061 -9.672373,-0.33776 -0.935453,-0.258645 -1.828899,-1.0552976 -2.823752,-0.9149006 -0.991059,1.032155 -0.966155,2.6326245 -1.29779,3.9533303 -0.693745,3.942209 -1.745848,7.857678 -1.661105,11.892863 -0.05179,6.80414 -0.395618,13.63957 0.338831,20.419581 0.415034,3.023595 1.156261,6.065099 2.575459,8.781189 0.724724,1.406054 2.450487,1.365286 3.795401,1.150565 2.235091,-0.363986 4.428361,-0.953233 6.657067,-1.352527 1.322676,-0.383218 2.581227,-1.077035 4.004502,-0.945608 5.605963,-0.09695 11.213333,-0.08428 16.819893,-0.130862 0.78502,-2.341396 0.462,-4.858696 0.57268,-7.284018 -0.0737,-1.917873 0.11546,-3.894157 -0.36526,-5.767195 -0.37101,-0.972201 -0.96589,-1.887731 -0.77623,-2.972421 -0.0126,-7.443228 -0.15749,-14.890464 0.13317,-22.330331 0.81798,-1.5364269 1.43893,-3.4146646 0.9325,-5.1444576 -0.69075,-1.3323316 -2.34518,-1.6793473 -3.65515,-2.1155219 -0.40498,-0.077957 -0.81987,-0.070536 -1.23036,-0.070873 z"
       id="path1150"
       transform="scale(0.26458333)" />
    <path
       style="fill:#a0a0a0;stroke:none;stroke-width:0.126877"
       d="m 142.49355,4.1547196 c -1.62348,-0.029508 -3.23954,0.2112375 -4.72839,0.881199 -3.33322,0.58839 -6.75173,0.4365209 -10.12313,0.3735995 -1.49992,-0.1560934 -3.1116,0.1820478 -4.46363,-0.6286594 -0.99027,-0.4477302 -2.4169,-1.0978724 -3.23448,0.00824 -0.98886,1.4801454 -1.07717,3.3525085 -1.42265,5.0552475 -0.2959,4.9229558 -0.15805,9.8631548 -0.24136,14.7932898 0.0484,6.094707 -0.24756,12.235624 0.6552,18.284879 0.36585,1.931915 0.62,3.943746 1.4229,5.746627 0.83512,0.706674 2.08831,0.428759 3.10521,0.56605 2.80073,0.04159 5.63515,0.01389 8.41209,-0.201973 0.98074,-0.454554 1.90306,-1.156238 3.0413,-0.944669 5.94058,-0.03214 11.88116,-0.06428 17.82175,-0.09642 0.24005,-6.087659 0.15883,-12.185117 0.24434,-18.276869 0.0421,-8.361706 0.13914,-16.72439 0.0934,-25.0857546 -0.43236,-0.3639976 -0.80989,0.5520912 -1.30396,0.5070116 -1.69869,0.4255332 -3.48695,0.183875 -5.06219,-0.5560772 -1.36308,-0.3980452 -2.80644,-0.4390629 -4.21642,-0.4257311 z"
       id="path1189"
       transform="scale(0.26458333)" />
  </g>
</svg>
