<?xml version="1.0" encoding="UTF-8" standalone="no"?>
<!-- Created with Inkscape (http://www.inkscape.org/) -->

<svg
   width="210mm"
   height="297mm"
   viewBox="0 0 210 297"
   version="1.1"
   id="svg4150"
   inkscape:version="1.1.2 (0a00cf5339, 2022-02-04)"
   sodipodi:docname="text-digit-zero.svg"
   xmlns:inkscape="http://www.inkscape.org/namespaces/inkscape"
   xmlns:sodipodi="http://sodipodi.sourceforge.net/DTD/sodipodi-0.dtd"
   xmlns="http://www.w3.org/2000/svg"
   xmlns:svg="http://www.w3.org/2000/svg">
  <sodipodi:namedview
     id="namedview4152"
     pagecolor="#ffffff"
     bordercolor="#666666"
     borderopacity="1.0"
     inkscape:pageshadow="2"
     inkscape:pageopacity="0.0"
     inkscape:pagecheckerboard="0"
     inkscape:document-units="mm"
     showgrid="false"
     inkscape:zoom="0.69664703"
     inkscape:cx="124.16618"
     inkscape:cy="560.54212"
     inkscape:window-width="1603"
     inkscape:window-height="1134"
     inkscape:window-x="26"
     inkscape:window-y="23"
     inkscape:window-maximized="0"
     inkscape:current-layer="mainLayer" />
  <defs
     id="defs4147" />
  <g
     inkscape:label="Main Layer"
     inkscape:groupmode="layer"
     id="mainLayer">
    <path
       d="m 2.3632411,7.8518068 v 0 C 2.6479302,7.6562798 2.9731057,7.5091718 3.2170489,7.2646968 3.3980265,7.0831928 3.488514,6.8294568 3.6081057,6.6029738 3.7628843,6.31008 3.9356599,6.0227425 4.0399057,5.7084175 4.2431031,5.0953779 4.5145656,4.4786341 4.5259453,3.8327862 4.5352057,3.3038842 4.2716781,2.8043508 4.0991724,2.3042883 3.9465078,1.8608467 3.7917265,1.411055 3.5525432,1.0075654 3.4210453,0.78558002 3.2310718,0.58529042 3.0056495,0.45961342 2.6182995,0.24318422 2.1936432,0.07041132 1.7546995,0.00426542 1.5893349,-0.02060538 1.3908974,0.06564882 1.2932662,0.20138002 0.96703493,0.65434672 0.74240373,1.1766342 0.53682243,1.6954821 0.33309323,2.2095675 0.16296623,2.7421737 0.07036203,3.28748 c -0.0746125,0.4394729 -0.0976312,0.8964083 -0.0309562,1.3374687 0.0817562,0.5418667 0.2754312,1.0630958 0.4706937,1.5753292 0.1322917,0.3460749 0.2627312,0.7106709 0.50773537,0.9887479 0.2677583,0.303477 0.6244167,0.527844 0.987425,0.706702 m 0.2931583,-1.063625 v 0 c -0.1494896,0.005 -0.3219979,0.09446 -0.4484687,0.01482 C 1.6710911,6.7344718 1.5718724,6.5198948 1.4919682,6.324632 1.2305599,5.6853987 0.97285573,5.0366404 0.83315573,4.3603654 0.76065993,4.0100571 0.79373283,3.6383175 0.86437663,3.28748 0.95407033,2.8427154 1.1170537,2.4119738 1.3083474,2.0008113 1.4168266,1.7677133 1.5414453,1.5142425 1.7560224,1.3726904 c 0.08546,-0.056621 0.1613958,0.1603375 0.2640542,0.1579563 0.1026583,-0.00238 0.1592791,-0.1389063 0.2574395,-0.1698625 0.088635,-0.028046 0.1987021,-0.046567 0.2788709,2.646e-4 0.1804458,0.1050395 0.3664479,0.2402416 0.4561416,0.4288895 0.310089,0.6519334 0.7194021,1.3208 0.7196667,2.0428479 0,0.8053917 -0.3717396,1.5800917 -0.7191375,2.3066375"
       style="fill:#000000;stroke-width:0.264583"
       id="textDigitZero" />
  </g>
</svg>
